<svg xmlns="http://www.w3.org/2000/svg" viewBox="0 0 1373.94 270"><defs><style>.cls-1,.cls-14{fill:#378ebb;}.cls-1,.cls-10,.cls-11,.cls-12,.cls-13,.cls-2,.cls-3,.cls-4,.cls-5,.cls-6,.cls-7,.cls-8,.cls-9{stroke:#fff;stroke-width:40px;}.cls-1,.cls-10,.cls-11,.cls-12,.cls-13,.cls-14,.cls-15,.cls-16,.cls-17,.cls-18,.cls-19,.cls-2,.cls-20,.cls-22,.cls-23,.cls-24,.cls-25,.cls-26,.cls-3,.cls-4,.cls-5,.cls-6,.cls-7,.cls-9{stroke-miterlimit:10;}.cls-15,.cls-2{fill:#d8434e;}.cls-16,.cls-3{fill:#5f50a1;}.cls-17,.cls-4{fill:#fdbf6e;}.cls-18,.cls-5{fill:#c0dea0;}.cls-19,.cls-6{fill:#f47b4a;}.cls-20,.cls-7{fill:#eff0ab;}.cls-11,.cls-21,.cls-24,.cls-8{fill:none;}.cls-21,.cls-8{stroke-linecap:round;stroke-linejoin:round;}.cls-22,.cls-9{fill:#76c7a5;}.cls-10,.cls-23{fill:#fdeea1;}.cls-12,.cls-25{fill:#f5f4b5;}.cls-13,.cls-26{fill:#51adae;}.cls-14,.cls-15,.cls-16,.cls-17,.cls-18,.cls-19,.cls-20,.cls-21,.cls-22,.cls-23,.cls-24,.cls-25,.cls-26{stroke:#231f20;stroke-width:3px;}</style></defs><g id="Layer_2" data-name="Layer 2"><g id="Layer_1-2" data-name="Layer 1"><rect class="cls-1" x="779.06" y="158" width="46" height="46"/><rect class="cls-2" x="779.06" y="112" width="46" height="46"/><path class="cls-1" d="M733.06,20h23V66h-23a23,23,0,0,1,0-46Z"/><rect class="cls-3" x="802.06" y="20" width="46" height="46"/><rect class="cls-4" x="756.06" y="20" width="46" height="46"/><rect class="cls-5" x="779.06" y="66" width="46" height="46"/><path class="cls-6" d="M871.06,66a23,23,0,0,0,0-46h-23V66Z"/><path class="cls-3" d="M779.06,227a23,23,0,0,0,46,0V204h-46Z"/><path class="cls-2" d="M940,204v23a23,23,0,0,0,23,23h23V204Z"/><rect class="cls-5" x="986" y="204" width="46" height="46"/><path class="cls-7" d="M1124,43a23,23,0,0,0-46,0V66h46Z"/><line class="cls-8" x1="1078" y1="43" x2="1078" y2="66"/><rect class="cls-9" x="1078" y="66" width="46" height="46"/><line class="cls-8" x1="1078" y1="66" x2="1078" y2="112"/><rect class="cls-6" x="1078" y="112" width="46" height="46"/><line class="cls-8" x1="1078" y1="112" x2="1078" y2="158"/><path class="cls-1" d="M986,43a23,23,0,0,0-23-23h0a23,23,0,0,0-23,23V66h46Z"/><rect class="cls-10" x="940" y="66" width="46" height="46"/><rect class="cls-2" x="940" y="112" width="46" height="46"/><path class="cls-1" d="M1124,227V204h-46v46h23A23,23,0,0,0,1124,227Z"/><rect class="cls-10" x="1032" y="204" width="46" height="46"/><rect class="cls-3" x="940" y="158" width="46" height="46"/><line class="cls-8" x1="986" y1="204" x2="1032" y2="204"/><line class="cls-8" x1="986" y1="204" x2="986" y2="158"/><rect class="cls-4" x="1078" y="158" width="46" height="46"/><line class="cls-8" x1="1032" y1="204" x2="1078" y2="204"/><line class="cls-8" x1="1078" y1="158" x2="1078" y2="204"/><polygon class="cls-11" points="526.06 66 526.06 66 526.06 112 572.06 112 618.06 112 618.06 66 618.06 66 572.06 66 526.06 66"/><polygon class="cls-11" points="526.06 20 572.06 20 618.06 20 641.06 20 641.06 20 503.06 20 503.06 20 526.06 20"/><path class="cls-2" d="M618.06,158h23a23,23,0,0,0,23-23h0V112h-46Z"/><rect class="cls-10" x="572.06" y="112" width="46" height="46"/><rect class="cls-2" x="526.06" y="112" width="46" height="46"/><polygon class="cls-1" points="480.06 112 480.06 135 480.06 135 480.06 158 526.06 158 526.06 158 526.06 112 480.06 112"/><polygon class="cls-6" points="618.06 112 618.06 112 664.06 112 664.06 66 618.06 66 618.06 112"/><rect class="cls-12" x="572.06" y="112" width="46"/><line class="cls-8" x1="618.06" y1="66" x2="618.06" y2="112"/><rect class="cls-13" x="549.06" y="89" height="46"/><polygon class="cls-6" points="526.06 112 526.06 66 480.06 66 480.06 112 526.06 112 526.06 112"/><path class="cls-9" d="M618.06,66h46V43h0a23,23,0,0,0-23-23h-23Z"/><rect class="cls-1" x="572.06" y="20" width="46" height="46"/><line class="cls-8" x1="618.06" y1="66" x2="618.06" y2="66"/><rect class="cls-7" x="526.06" y="20" width="46" height="46"/><path class="cls-3" d="M526.06,66V20h-23a23,23,0,0,0-23,23h0V66Z"/><polyline class="cls-8" points="480.06 112 480.06 135 480.06 135 480.06 158"/><line class="cls-8" x1="480.06" y1="66" x2="480.06" y2="112"/><polyline class="cls-8" points="480.06 43 480.06 43 480.06 66"/><path class="cls-2" d="M480.06,227a23,23,0,1,0,46,0V204h-46Z"/><rect class="cls-10" x="480.06" y="158" width="46" height="46"/><path class="cls-1" d="M20,204v23h0a23,23,0,0,0,23,23H66V204Z"/><rect class="cls-9" x="66" y="204" width="46" height="46"/><rect class="cls-2" x="112" y="204" width="46" height="46"/><path class="cls-3" d="M204,227h0a23,23,0,0,0-23-23H158v46h23A23,23,0,0,0,204,227Z"/><line class="cls-8" x1="204" y1="227" x2="204" y2="227"/><rect class="cls-3" x="20" y="112" width="46" height="46"/><rect class="cls-1" x="20" y="66" width="46" height="46"/><path class="cls-9" d="M66,20H43A23,23,0,0,0,20,43h0V66H66Z"/><line class="cls-8" x1="66" y1="112" x2="66" y2="158"/><line class="cls-8" x1="66" y1="66" x2="66" y2="112"/><rect class="cls-6" x="66" y="20" width="46" height="46"/><rect class="cls-7" x="112" y="20" width="46" height="46"/><path class="cls-2" d="M181,66a23,23,0,0,0,23-23h0a23,23,0,0,0-23-23H158V66Z"/><line class="cls-8" x1="204" y1="43" x2="204" y2="43"/><rect class="cls-5" x="20" y="158" width="46" height="46"/><line class="cls-8" x1="66" y1="204" x2="112" y2="204"/><line class="cls-8" x1="66" y1="158" x2="66" y2="204"/><line class="cls-8" x1="112" y1="204" x2="158" y2="204"/><line class="cls-8" x1="181" y1="204" x2="158" y2="204"/><polygon class="cls-11" points="342 66 296 66 296 112 342 112 388 112 388 66 342 66"/><polygon class="cls-2" points="434 135.06 434 135.06 434.06 112.06 388.06 111.94 387.94 157.94 433.94 158.06 434 135.06"/><rect class="cls-4" x="388" y="66" width="46" height="46"/><path class="cls-3" d="M434,66V43h0a23,23,0,0,0-23-23H388V66Z"/><rect class="cls-1" x="342" y="112" width="46" height="46"/><line class="cls-8" x1="388" y1="66" x2="388" y2="112"/><line class="cls-8" x1="342" y1="112" x2="388" y2="112"/><rect class="cls-6" x="342" y="20" width="46" height="46"/><path class="cls-9" d="M250,227a23,23,0,0,0,23,23h0a23,23,0,0,0,23-23V204H250Z"/><line class="cls-8" x1="296" y1="204" x2="296" y2="227"/><path class="cls-2" d="M434,227V204H388v23a23,23,0,0,0,23,23h0A23,23,0,0,0,434,227Z"/><polygon class="cls-6" points="250 112 250 135 250 135 250 158 296 158 296 112 250 112"/><rect class="cls-9" x="296" y="112" width="46" height="46"/><rect class="cls-1" x="250" y="66" width="46" height="46"/><line class="cls-8" x1="296" y1="112" x2="342" y2="112"/><line class="cls-8" x1="296" y1="112" x2="296" y2="66"/><path class="cls-4" d="M296,20H273a23,23,0,0,0-23,23h0V66h46Z"/><rect class="cls-5" x="296" y="20" width="46" height="46"/><rect class="cls-3" x="250" y="158" width="46" height="46"/><line class="cls-8" x1="296" y1="158" x2="342" y2="158"/><line class="cls-8" x1="296" y1="204" x2="296" y2="158"/><line class="cls-8" x1="342" y1="158" x2="388" y2="158"/><rect class="cls-4" x="388" y="158" width="46" height="46"/><path class="cls-2" d="M1330.94,20h-23V66h23a23,23,0,0,0,23-23h0A23,23,0,0,0,1330.94,20Z"/><rect class="cls-7" x="1261.94" y="20" width="46" height="46"/><rect class="cls-9" x="1215.94" y="20" width="46" height="46"/><path class="cls-4" d="M1192.94,20a23,23,0,0,0-23,23h0V66h46V20Z"/><polyline class="cls-8" points="1169.94 43 1169.94 43 1169.94 66"/><line class="cls-8" x1="1330.94" y1="66" x2="1307.94" y2="66"/><line class="cls-8" x1="1307.94" y1="66" x2="1261.94" y2="66"/><line class="cls-8" x1="1215.94" y1="66" x2="1261.94" y2="66"/><rect class="cls-3" x="1169.94" y="66" width="46" height="46"/><line class="cls-8" x1="1169.94" y1="112" x2="1169.94" y2="66"/><path class="cls-2" d="M1353.94,158V135h0a23,23,0,0,0-23-23h-23v46Z"/><rect class="cls-4" x="1261.94" y="112" width="46" height="46"/><rect class="cls-1" x="1215.94" y="112" width="46" height="46"/><path class="cls-7" d="M1169.94,135h0a23,23,0,0,0,23,23h23V112h-46Z"/><polyline class="cls-8" points="1169.94 112 1169.94 135 1169.94 135"/><path class="cls-9" d="M1307.94,250h23a23,23,0,0,0,23-23h0V204h-46Z"/><rect class="cls-6" x="1261.94" y="204" width="46" height="46"/><rect class="cls-3" x="1215.94" y="204" width="46" height="46"/><path class="cls-1" d="M1192.94,204a23,23,0,0,0-23,23h0a23,23,0,0,0,23,23h23V204Z"/><line class="cls-8" x1="1169.94" y1="227" x2="1169.94" y2="227"/><rect class="cls-10" x="1307.94" y="158" width="46" height="46"/><line class="cls-8" x1="1307.94" y1="158" x2="1261.94" y2="158"/><line class="cls-8" x1="1307.94" y1="204" x2="1261.94" y2="204"/><line class="cls-8" x1="1307.94" y1="204" x2="1307.94" y2="158"/><line class="cls-8" x1="1261.94" y1="158" x2="1215.94" y2="158"/><line class="cls-8" x1="1261.94" y1="204" x2="1215.94" y2="204"/><line class="cls-8" x1="1192.94" y1="158" x2="1215.94" y2="158"/><line class="cls-8" x1="1192.94" y1="204" x2="1215.94" y2="204"/><rect class="cls-14" x="779.06" y="158" width="46" height="46"/><rect class="cls-15" x="779.06" y="112" width="46" height="46"/><path class="cls-14" d="M733.06,20h23V66h-23a23,23,0,0,1,0-46Z"/><rect class="cls-16" x="802.06" y="20" width="46" height="46"/><rect class="cls-17" x="756.06" y="20" width="46" height="46"/><rect class="cls-18" x="779.06" y="66" width="46" height="46"/><path class="cls-19" d="M871.06,66a23,23,0,0,0,0-46h-23V66Z"/><path class="cls-16" d="M779.06,227a23,23,0,0,0,46,0V204h-46Z"/><path class="cls-15" d="M940,204v23a23,23,0,0,0,23,23h23V204Z"/><rect class="cls-18" x="986" y="204" width="46" height="46"/><path class="cls-20" d="M1124,43a23,23,0,0,0-46,0V66h46Z"/><line class="cls-21" x1="1078" y1="43" x2="1078" y2="66"/><rect class="cls-22" x="1078" y="66" width="46" height="46"/><line class="cls-21" x1="1078" y1="66" x2="1078" y2="112"/><rect class="cls-19" x="1078" y="112" width="46" height="46"/><line class="cls-21" x1="1078" y1="112" x2="1078" y2="158"/><path class="cls-14" d="M986,43a23,23,0,0,0-23-23h0a23,23,0,0,0-23,23V66h46Z"/><rect class="cls-23" x="940" y="66" width="46" height="46"/><rect class="cls-15" x="940" y="112" width="46" height="46"/><path class="cls-14" d="M1124,227V204h-46v46h23A23,23,0,0,0,1124,227Z"/><rect class="cls-23" x="1032" y="204" width="46" height="46"/><rect class="cls-16" x="940" y="158" width="46" height="46"/><line class="cls-21" x1="986" y1="204" x2="1032" y2="204"/><line class="cls-21" x1="986" y1="204" x2="986" y2="158"/><rect class="cls-17" x="1078" y="158" width="46" height="46"/><line class="cls-21" x1="1032" y1="204" x2="1078" y2="204"/><line class="cls-21" x1="1078" y1="158" x2="1078" y2="204"/><polygon class="cls-24" points="526.06 66 526.06 66 526.06 112 572.06 112 618.06 112 618.06 66 618.06 66 572.06 66 526.06 66"/><polygon class="cls-24" points="526.06 20 572.06 20 618.06 20 641.06 20 641.06 20 503.06 20 503.06 20 526.06 20"/><path class="cls-15" d="M618.06,158h23a23,23,0,0,0,23-23h0V112h-46Z"/><rect class="cls-23" x="572.06" y="112" width="46" height="46"/><rect class="cls-15" x="526.06" y="112" width="46" height="46"/><polygon class="cls-14" points="480.06 112 480.06 135 480.06 135 480.06 158 526.06 158 526.06 158 526.06 112 480.06 112"/><polygon class="cls-19" points="618.06 112 618.06 112 664.06 112 664.06 66 618.06 66 618.06 112"/><rect class="cls-25" x="572.06" y="112" width="46"/><line class="cls-21" x1="618.06" y1="66" x2="618.06" y2="112"/><rect class="cls-26" x="549.06" y="89" height="46"/><polygon class="cls-19" points="526.06 112 526.06 66 480.06 66 480.06 112 526.06 112 526.06 112"/><path class="cls-22" d="M618.06,66h46V43h0a23,23,0,0,0-23-23h-23Z"/><rect class="cls-14" x="572.06" y="20" width="46" height="46"/><line class="cls-21" x1="618.06" y1="66" x2="618.06" y2="66"/><rect class="cls-20" x="526.06" y="20" width="46" height="46"/><path class="cls-16" d="M526.06,66V20h-23a23,23,0,0,0-23,23h0V66Z"/><polyline class="cls-21" points="480.06 112 480.06 135 480.06 135 480.06 158"/><line class="cls-21" x1="480.06" y1="66" x2="480.06" y2="112"/><polyline class="cls-21" points="480.06 43 480.06 43 480.06 66"/><path class="cls-15" d="M480.06,227a23,23,0,1,0,46,0V204h-46Z"/><rect class="cls-23" x="480.06" y="158" width="46" height="46"/><path class="cls-14" d="M20,204v23h0a23,23,0,0,0,23,23H66V204Z"/><rect class="cls-22" x="66" y="204" width="46" height="46"/><rect class="cls-15" x="112" y="204" width="46" height="46"/><path class="cls-16" d="M204,227h0a23,23,0,0,0-23-23H158v46h23A23,23,0,0,0,204,227Z"/><line class="cls-21" x1="204" y1="227" x2="204" y2="227"/><rect class="cls-16" x="20" y="112" width="46" height="46"/><rect class="cls-14" x="20" y="66" width="46" height="46"/><path class="cls-22" d="M66,20H43A23,23,0,0,0,20,43h0V66H66Z"/><line class="cls-21" x1="66" y1="112" x2="66" y2="158"/><line class="cls-21" x1="66" y1="66" x2="66" y2="112"/><rect class="cls-19" x="66" y="20" width="46" height="46"/><rect class="cls-20" x="112" y="20" width="46" height="46"/><path class="cls-15" d="M181,66a23,23,0,0,0,23-23h0a23,23,0,0,0-23-23H158V66Z"/><line class="cls-21" x1="204" y1="43" x2="204" y2="43"/><rect class="cls-18" x="20" y="158" width="46" height="46"/><line class="cls-21" x1="66" y1="204" x2="112" y2="204"/><line class="cls-21" x1="66" y1="158" x2="66" y2="204"/><line class="cls-21" x1="112" y1="204" x2="158" y2="204"/><line class="cls-21" x1="181" y1="204" x2="158" y2="204"/><polygon class="cls-24" points="342 66 296 66 296 112 342 112 388 112 388 66 342 66"/><polygon class="cls-15" points="434 135.06 434 135.06 434.06 112.06 388.06 111.94 387.94 157.94 433.94 158.06 434 135.06"/><rect class="cls-17" x="388" y="66" width="46" height="46"/><path class="cls-16" d="M434,66V43h0a23,23,0,0,0-23-23H388V66Z"/><rect class="cls-14" x="342" y="112" width="46" height="46"/><line class="cls-21" x1="388" y1="66" x2="388" y2="112"/><line class="cls-21" x1="342" y1="112" x2="388" y2="112"/><rect class="cls-19" x="342" y="20" width="46" height="46"/><path class="cls-22" d="M250,227a23,23,0,0,0,23,23h0a23,23,0,0,0,23-23V204H250Z"/><line class="cls-21" x1="296" y1="204" x2="296" y2="227"/><path class="cls-15" d="M434,227V204H388v23a23,23,0,0,0,23,23h0A23,23,0,0,0,434,227Z"/><polygon class="cls-19" points="250 112 250 135 250 135 250 158 296 158 296 112 250 112"/><rect class="cls-22" x="296" y="112" width="46" height="46"/><rect class="cls-14" x="250" y="66" width="46" height="46"/><line class="cls-21" x1="296" y1="112" x2="342" y2="112"/><line class="cls-21" x1="296" y1="112" x2="296" y2="66"/><path class="cls-17" d="M296,20H273a23,23,0,0,0-23,23h0V66h46Z"/><rect class="cls-18" x="296" y="20" width="46" height="46"/><rect class="cls-16" x="250" y="158" width="46" height="46"/><line class="cls-21" x1="296" y1="158" x2="342" y2="158"/><line class="cls-21" x1="296" y1="204" x2="296" y2="158"/><line class="cls-21" x1="342" y1="158" x2="388" y2="158"/><rect class="cls-17" x="388" y="158" width="46" height="46"/><path class="cls-15" d="M1330.94,20h-23V66h23a23,23,0,0,0,23-23h0A23,23,0,0,0,1330.94,20Z"/><rect class="cls-20" x="1261.94" y="20" width="46" height="46"/><rect class="cls-22" x="1215.94" y="20" width="46" height="46"/><path class="cls-17" d="M1192.94,20a23,23,0,0,0-23,23h0V66h46V20Z"/><polyline class="cls-21" points="1169.94 43 1169.94 43 1169.94 66"/><line class="cls-21" x1="1330.94" y1="66" x2="1307.94" y2="66"/><line class="cls-21" x1="1307.94" y1="66" x2="1261.94" y2="66"/><line class="cls-21" x1="1215.94" y1="66" x2="1261.94" y2="66"/><rect class="cls-16" x="1169.94" y="66" width="46" height="46"/><line class="cls-21" x1="1169.94" y1="112" x2="1169.94" y2="66"/><path class="cls-15" d="M1353.94,158V135h0a23,23,0,0,0-23-23h-23v46Z"/><rect class="cls-17" x="1261.94" y="112" width="46" height="46"/><rect class="cls-14" x="1215.94" y="112" width="46" height="46"/><path class="cls-20" d="M1169.94,135h0a23,23,0,0,0,23,23h23V112h-46Z"/><polyline class="cls-21" points="1169.94 112 1169.94 135 1169.94 135"/><path class="cls-22" d="M1307.94,250h23a23,23,0,0,0,23-23h0V204h-46Z"/><rect class="cls-19" x="1261.94" y="204" width="46" height="46"/><rect class="cls-16" x="1215.94" y="204" width="46" height="46"/><path class="cls-14" d="M1192.94,204a23,23,0,0,0-23,23h0a23,23,0,0,0,23,23h23V204Z"/><line class="cls-21" x1="1169.94" y1="227" x2="1169.94" y2="227"/><rect class="cls-23" x="1307.94" y="158" width="46" height="46"/><line class="cls-21" x1="1307.94" y1="158" x2="1261.94" y2="158"/><line class="cls-21" x1="1307.94" y1="204" x2="1261.94" y2="204"/><line class="cls-21" x1="1307.94" y1="204" x2="1307.94" y2="158"/><line class="cls-21" x1="1261.94" y1="158" x2="1215.94" y2="158"/><line class="cls-21" x1="1261.94" y1="204" x2="1215.94" y2="204"/><line class="cls-21" x1="1192.94" y1="158" x2="1215.94" y2="158"/><line class="cls-21" x1="1192.94" y1="204" x2="1215.94" y2="204"/></g></g></svg>