<svg xmlns="http://www.w3.org/2000/svg" viewBox="0 0 1379.94 276"><defs><style>.cls-1{fill:#378ebb;}.cls-1,.cls-10,.cls-11,.cls-12,.cls-13,.cls-2,.cls-3,.cls-4,.cls-5,.cls-6,.cls-7,.cls-8,.cls-9{stroke:#fff;stroke-width:46px;}.cls-1,.cls-10,.cls-11,.cls-12,.cls-13,.cls-14,.cls-15,.cls-16,.cls-17,.cls-18,.cls-19,.cls-2,.cls-20,.cls-21,.cls-23,.cls-24,.cls-25,.cls-26,.cls-27,.cls-28,.cls-29,.cls-3,.cls-30,.cls-31,.cls-32,.cls-33,.cls-34,.cls-35,.cls-36,.cls-38,.cls-4,.cls-42,.cls-43,.cls-44,.cls-45,.cls-46,.cls-47,.cls-48,.cls-5,.cls-52,.cls-6,.cls-7,.cls-9{stroke-miterlimit:10;}.cls-2{fill:#d8434e;}.cls-3,.cls-49,.cls-52{fill:#5f50a1;}.cls-4{fill:#fdbf6e;}.cls-5{fill:#c0dea0;}.cls-6{fill:#f47b4a;}.cls-7{fill:#eff0ab;}.cls-11,.cls-22,.cls-26,.cls-37,.cls-8{fill:none;}.cls-22,.cls-37,.cls-39,.cls-40,.cls-41,.cls-49,.cls-50,.cls-51,.cls-53,.cls-8{stroke-linecap:round;stroke-linejoin:round;}.cls-9{fill:#76c7a5;}.cls-10{fill:#fdeea1;}.cls-12,.cls-31{fill:#f5f4b5;}.cls-13,.cls-16{fill:#51adae;}.cls-14{fill:#fbb064;}.cls-14,.cls-15,.cls-16,.cls-17,.cls-18,.cls-19,.cls-20,.cls-21,.cls-22,.cls-23,.cls-24,.cls-25,.cls-26,.cls-27,.cls-28,.cls-29,.cls-30,.cls-31,.cls-32,.cls-33,.cls-34,.cls-35,.cls-36,.cls-37,.cls-38,.cls-39,.cls-40,.cls-41,.cls-42,.cls-43,.cls-44,.cls-45,.cls-46,.cls-47,.cls-48,.cls-49,.cls-50,.cls-51,.cls-52,.cls-53{stroke:#231f20;}.cls-14,.cls-15,.cls-16,.cls-17,.cls-18,.cls-19,.cls-20,.cls-21,.cls-22,.cls-23,.cls-24,.cls-25,.cls-26,.cls-27,.cls-28,.cls-29,.cls-30,.cls-31,.cls-32,.cls-33,.cls-34,.cls-35,.cls-36,.cls-38,.cls-39,.cls-40,.cls-41,.cls-42,.cls-43,.cls-44,.cls-45,.cls-46,.cls-47,.cls-48,.cls-49,.cls-50,.cls-51,.cls-52,.cls-53{stroke-width:5px;}.cls-15{fill:#dee89a;}.cls-17{fill:#ffd07e;}.cls-18{fill:#f0f1ad;}.cls-19,.cls-53{fill:#3d95b8;}.cls-20{fill:#a2d4a3;}.cls-21{fill:#fde899;}.cls-23{fill:#4472b3;}.cls-24{fill:#6ac4a5;}.cls-25{fill:#dc484c;}.cls-27{fill:#fff7b0;}.cls-28{fill:#48a1b3;}.cls-29{fill:#fec675;}.cls-30,.cls-41{fill:#e2514a;}.cls-32{fill:#feda86;}.cls-33{fill:#86cca4;}.cls-34{fill:#a91d47;}.cls-35,.cls-39{fill:#c0264a;}.cls-36{fill:#f68a51;}.cls-37{stroke-width:7px;}.cls-38,.cls-40{fill:#d63f4f;}.cls-42{fill:#f79758;}.cls-43{fill:#ed6545;}.cls-44{fill:#555ca9;}.cls-45{fill:#f47d4a;}.cls-46{fill:#fcf7bc;}.cls-47,.cls-50{fill:#4d67ad;}.cls-48,.cls-51{fill:#3a7fb9;}</style></defs><g id="Layer_2" data-name="Layer 2"><g id="Layer_1-2" data-name="Layer 1"><rect class="cls-1" x="782.06" y="161" width="46" height="46"/><rect class="cls-2" x="782.06" y="115" width="46" height="46"/><path class="cls-1" d="M736.06,23h23V69h-23a23,23,0,0,1,0-46Z"/><rect class="cls-3" x="805.06" y="23" width="46" height="46"/><rect class="cls-4" x="759.06" y="23" width="46" height="46"/><rect class="cls-5" x="782.06" y="69" width="46" height="46"/><path class="cls-6" d="M874.06,69a23,23,0,0,0,0-46h-23V69Z"/><path class="cls-3" d="M782.06,230a23,23,0,0,0,46,0V207h-46Z"/><path class="cls-2" d="M943,207v23a23,23,0,0,0,23,23h23V207Z"/><rect class="cls-5" x="989" y="207" width="46" height="46"/><path class="cls-7" d="M1127,46a23,23,0,0,0-46,0V69h46Z"/><line class="cls-8" x1="1081" y1="46" x2="1081" y2="69"/><rect class="cls-9" x="1081" y="69" width="46" height="46"/><line class="cls-8" x1="1081" y1="69" x2="1081" y2="115"/><rect class="cls-6" x="1081" y="115" width="46" height="46"/><line class="cls-8" x1="1081" y1="115" x2="1081" y2="161"/><path class="cls-1" d="M989,46a23,23,0,0,0-23-23h0a23,23,0,0,0-23,23V69h46Z"/><rect class="cls-10" x="943" y="69" width="46" height="46"/><rect class="cls-2" x="943" y="115" width="46" height="46"/><path class="cls-1" d="M1127,230V207h-46v46h23A23,23,0,0,0,1127,230Z"/><rect class="cls-10" x="1035" y="207" width="46" height="46"/><rect class="cls-3" x="943" y="161" width="46" height="46"/><line class="cls-8" x1="989" y1="207" x2="1035" y2="207"/><line class="cls-8" x1="989" y1="207" x2="989" y2="161"/><rect class="cls-4" x="1081" y="161" width="46" height="46"/><line class="cls-8" x1="1035" y1="207" x2="1081" y2="207"/><line class="cls-8" x1="1081" y1="161" x2="1081" y2="207"/><polygon class="cls-11" points="529.06 69 529.06 69 529.06 115 575.06 115 621.06 115 621.06 69 621.06 69 575.06 69 529.06 69"/><path class="cls-2" d="M621.06,161h23a23,23,0,0,0,23-23h0V115h-46Z"/><rect class="cls-10" x="575.06" y="115" width="46" height="46"/><rect class="cls-2" x="529.06" y="115" width="46" height="46"/><polygon class="cls-1" points="483.06 115 483.06 138 483.06 138 483.06 161 529.06 161 529.06 161 529.06 115 483.06 115"/><polygon class="cls-6" points="621.06 115 621.06 115 667.06 115 667.06 69 621.06 69 621.06 115"/><rect class="cls-12" x="575.06" y="115" width="46"/><line class="cls-8" x1="621.06" y1="69" x2="621.06" y2="115"/><rect class="cls-13" x="552.06" y="92" height="46"/><polygon class="cls-6" points="529.06 115 529.06 69 483.06 69 483.06 115 529.06 115 529.06 115"/><path class="cls-9" d="M621.06,69h46V46h0a23,23,0,0,0-23-23h-23Z"/><rect class="cls-1" x="575.06" y="23" width="46" height="46"/><line class="cls-8" x1="621.06" y1="69" x2="621.06" y2="69"/><rect class="cls-7" x="529.06" y="23" width="46" height="46"/><path class="cls-3" d="M529.06,69V23h-23a23,23,0,0,0-23,23h0V69Z"/><polyline class="cls-8" points="483.06 115 483.06 138 483.06 138 483.06 161"/><line class="cls-8" x1="483.06" y1="69" x2="483.06" y2="115"/><polyline class="cls-8" points="483.06 46 483.06 46 483.06 69"/><path class="cls-2" d="M483.06,230a23,23,0,1,0,46,0V207h-46Z"/><rect class="cls-10" x="483.06" y="161" width="46" height="46"/><path class="cls-1" d="M23,207v23h0a23,23,0,0,0,23,23H69V207Z"/><rect class="cls-9" x="69" y="207" width="46" height="46"/><rect class="cls-2" x="115" y="207" width="46" height="46"/><path class="cls-3" d="M207,230h0a23,23,0,0,0-23-23H161v46h23A23,23,0,0,0,207,230Z"/><line class="cls-8" x1="207" y1="230" x2="207" y2="230"/><rect class="cls-3" x="23" y="115" width="46" height="46"/><rect class="cls-1" x="23" y="69" width="46" height="46"/><path class="cls-9" d="M69,23H46A23,23,0,0,0,23,46h0V69H69Z"/><line class="cls-8" x1="69" y1="115" x2="69" y2="161"/><line class="cls-8" x1="69" y1="69" x2="69" y2="115"/><rect class="cls-6" x="69" y="23" width="46" height="46"/><rect class="cls-7" x="115" y="23" width="46" height="46"/><path class="cls-2" d="M184,69a23,23,0,0,0,23-23h0a23,23,0,0,0-23-23H161V69Z"/><line class="cls-8" x1="207" y1="46" x2="207" y2="46"/><rect class="cls-5" x="23" y="161" width="46" height="46"/><line class="cls-8" x1="69" y1="207" x2="115" y2="207"/><line class="cls-8" x1="69" y1="161" x2="69" y2="207"/><line class="cls-8" x1="115" y1="207" x2="161" y2="207"/><line class="cls-8" x1="184" y1="207" x2="161" y2="207"/><polygon class="cls-11" points="345 69 299 69 299 115 345 115 391 115 391 69 345 69"/><polygon class="cls-2" points="437 138.06 437 138.06 437.06 115.06 391.06 114.94 390.94 160.94 436.94 161.06 437 138.06"/><rect class="cls-4" x="391" y="69" width="46" height="46"/><path class="cls-3" d="M437,69V46h0a23,23,0,0,0-23-23H391V69Z"/><rect class="cls-1" x="345" y="115" width="46" height="46"/><line class="cls-8" x1="391" y1="69" x2="391" y2="115"/><line class="cls-8" x1="345" y1="115" x2="391" y2="115"/><rect class="cls-6" x="345" y="23" width="46" height="46"/><path class="cls-9" d="M253,230a23,23,0,0,0,23,23h0a23,23,0,0,0,23-23V207H253Z"/><line class="cls-8" x1="299" y1="207" x2="299" y2="230"/><path class="cls-2" d="M437,230V207H391v23a23,23,0,0,0,23,23h0A23,23,0,0,0,437,230Z"/><polygon class="cls-6" points="253 115 253 138 253 138 253 161 299 161 299 115 253 115"/><rect class="cls-9" x="299" y="115" width="46" height="46"/><rect class="cls-1" x="253" y="69" width="46" height="46"/><line class="cls-8" x1="299" y1="115" x2="345" y2="115"/><line class="cls-8" x1="299" y1="115" x2="299" y2="69"/><path class="cls-4" d="M299,23H276a23,23,0,0,0-23,23h0V69h46Z"/><rect class="cls-5" x="299" y="23" width="46" height="46"/><rect class="cls-3" x="253" y="161" width="46" height="46"/><line class="cls-8" x1="299" y1="161" x2="345" y2="161"/><line class="cls-8" x1="299" y1="207" x2="299" y2="161"/><line class="cls-8" x1="345" y1="161" x2="391" y2="161"/><rect class="cls-4" x="391" y="161" width="46" height="46"/><path class="cls-2" d="M1333.94,23h-23V69h23a23,23,0,0,0,23-23h0A23,23,0,0,0,1333.94,23Z"/><rect class="cls-7" x="1264.94" y="23" width="46" height="46"/><rect class="cls-9" x="1218.94" y="23" width="46" height="46"/><path class="cls-4" d="M1195.94,23a23,23,0,0,0-23,23h0V69h46V23Z"/><polyline class="cls-8" points="1172.94 46 1172.94 46 1172.94 69"/><line class="cls-8" x1="1333.94" y1="69" x2="1310.94" y2="69"/><line class="cls-8" x1="1310.94" y1="69" x2="1264.94" y2="69"/><line class="cls-8" x1="1218.94" y1="69" x2="1264.94" y2="69"/><rect class="cls-3" x="1172.94" y="69" width="46" height="46"/><line class="cls-8" x1="1172.94" y1="115" x2="1172.94" y2="69"/><path class="cls-2" d="M1356.94,161V138h0a23,23,0,0,0-23-23h-23v46Z"/><rect class="cls-4" x="1264.94" y="115" width="46" height="46"/><rect class="cls-1" x="1218.94" y="115" width="46" height="46"/><path class="cls-7" d="M1172.94,138h0a23,23,0,0,0,23,23h23V115h-46Z"/><polyline class="cls-8" points="1172.94 115 1172.94 138 1172.94 138"/><path class="cls-9" d="M1310.94,253h23a23,23,0,0,0,23-23h0V207h-46Z"/><rect class="cls-6" x="1264.94" y="207" width="46" height="46"/><rect class="cls-3" x="1218.94" y="207" width="46" height="46"/><path class="cls-1" d="M1195.94,207a23,23,0,0,0-23,23h0a23,23,0,0,0,23,23h23V207Z"/><line class="cls-8" x1="1172.94" y1="230" x2="1172.94" y2="230"/><rect class="cls-10" x="1310.94" y="161" width="46" height="46"/><line class="cls-8" x1="1310.94" y1="161" x2="1264.94" y2="161"/><line class="cls-8" x1="1310.94" y1="207" x2="1264.94" y2="207"/><line class="cls-8" x1="1310.94" y1="207" x2="1310.94" y2="161"/><line class="cls-8" x1="1264.94" y1="161" x2="1218.94" y2="161"/><line class="cls-8" x1="1264.94" y1="207" x2="1218.94" y2="207"/><line class="cls-8" x1="1195.94" y1="161" x2="1218.94" y2="161"/><line class="cls-8" x1="1195.94" y1="207" x2="1218.94" y2="207"/><rect class="cls-14" x="782.06" y="161" width="46" height="46"/><rect class="cls-15" x="782.06" y="115" width="46" height="46"/><path class="cls-16" d="M736.06,23h23V69h-23a23,23,0,0,1,0-46Z"/><rect class="cls-17" x="805.06" y="23" width="46" height="46"/><rect class="cls-18" x="759.06" y="23" width="46" height="46"/><rect class="cls-15" x="782.06" y="69" width="46" height="46"/><path class="cls-19" d="M874.06,69a23,23,0,0,0,0-46h-23V69Z"/><path class="cls-15" d="M782.06,230a23,23,0,0,0,46,0V207h-46Z"/><path class="cls-20" d="M943,207v23a23,23,0,0,0,23,23h23V207Z"/><rect class="cls-21" x="989" y="207" width="46" height="46"/><path class="cls-16" d="M1127,46a23,23,0,0,0-46,0V69h46Z"/><line class="cls-22" x1="1081" y1="46" x2="1081" y2="69"/><rect class="cls-23" x="1081" y="69" width="46" height="46"/><line class="cls-22" x1="1081" y1="69" x2="1081" y2="115"/><rect class="cls-16" x="1081" y="115" width="46" height="46"/><line class="cls-22" x1="1081" y1="115" x2="1081" y2="161"/><path class="cls-20" d="M989,46a23,23,0,0,0-23-23h0a23,23,0,0,0-23,23V69h46Z"/><rect class="cls-20" x="943" y="69" width="46" height="46"/><rect class="cls-20" x="943" y="115" width="46" height="46"/><path class="cls-16" d="M1127,230V207h-46v46h23A23,23,0,0,0,1127,230Z"/><rect class="cls-24" x="1035" y="207" width="46" height="46"/><rect class="cls-25" x="943" y="161" width="46" height="46"/><line class="cls-22" x1="989" y1="207" x2="1035" y2="207"/><line class="cls-22" x1="989" y1="207" x2="989" y2="161"/><rect class="cls-16" x="1081" y="161" width="46" height="46"/><line class="cls-22" x1="1035" y1="207" x2="1081" y2="207"/><line class="cls-22" x1="1081" y1="161" x2="1081" y2="207"/><polygon class="cls-26" points="529.06 69 529.06 69 529.06 115 575.06 115 621.06 115 621.06 69 621.06 69 575.06 69 529.06 69"/><path class="cls-27" d="M621.06,161h23a23,23,0,0,0,23-23h0V115h-46Z"/><rect class="cls-21" x="575.06" y="115" width="46" height="46"/><rect class="cls-28" x="529.06" y="115" width="46" height="46"/><polygon class="cls-29" points="483.06 115 483.06 138 483.06 138 483.06 161 529.06 161 529.06 161 529.06 115 483.06 115"/><polygon class="cls-30" points="621.06 115 621.06 115 667.06 115 667.06 69 621.06 69 621.06 115"/><rect class="cls-31" x="575.06" y="115" width="46"/><line class="cls-22" x1="621.06" y1="69" x2="621.06" y2="115"/><rect class="cls-16" x="552.06" y="92" height="46"/><polygon class="cls-29" points="529.06 115 529.06 69 483.06 69 483.06 115 529.06 115 529.06 115"/><path class="cls-27" d="M621.06,69h46V46h0a23,23,0,0,0-23-23h-23Z"/><rect class="cls-23" x="575.06" y="23" width="46" height="46"/><line class="cls-22" x1="621.06" y1="69" x2="621.06" y2="69"/><rect class="cls-32" x="529.06" y="23" width="46" height="46"/><path class="cls-33" d="M529.06,69V23h-23a23,23,0,0,0-23,23h0V69Z"/><polyline class="cls-22" points="483.06 115 483.06 138 483.06 138 483.06 161"/><line class="cls-22" x1="483.06" y1="69" x2="483.06" y2="115"/><polyline class="cls-22" points="483.06 46 483.06 46 483.06 69"/><path class="cls-29" d="M483.06,230a23,23,0,1,0,46,0V207h-46Z"/><rect class="cls-29" x="483.06" y="161" width="46" height="46"/><path class="cls-34" d="M23,207v23h0a23,23,0,0,0,23,23H69V207Z"/><rect class="cls-35" x="69" y="207" width="46" height="46"/><rect class="cls-36" x="115" y="207" width="46" height="46"/><path class="cls-30" d="M207,230h0a23,23,0,0,0-23-23H161v46h23A23,23,0,0,0,207,230Z"/><line class="cls-37" x1="207" y1="230" x2="207" y2="230"/><rect class="cls-34" x="23" y="115" width="46" height="46"/><rect class="cls-19" x="23" y="69" width="46" height="46"/><path class="cls-34" d="M69,23H46A23,23,0,0,0,23,46h0V69H69Z"/><line class="cls-22" x1="69" y1="115" x2="69" y2="161"/><line class="cls-22" x1="69" y1="69" x2="69" y2="115"/><rect class="cls-35" x="69" y="23" width="46" height="46"/><rect class="cls-38" x="115" y="23" width="46" height="46"/><path class="cls-20" d="M184,69a23,23,0,0,0,23-23h0a23,23,0,0,0-23-23H161V69Z"/><line class="cls-22" x1="207" y1="46" x2="207" y2="46"/><rect class="cls-34" x="23" y="161" width="46" height="46"/><line class="cls-39" x1="69" y1="207" x2="115" y2="207"/><line class="cls-22" x1="69" y1="161" x2="69" y2="207"/><line class="cls-40" x1="115" y1="207" x2="161" y2="207"/><line class="cls-41" x1="184" y1="207" x2="161" y2="207"/><polygon class="cls-26" points="345 69 299 69 299 115 345 115 391 115 391 69 345 69"/><polygon class="cls-14" points="437 138.06 437 138.06 437.06 115.06 391.06 114.94 390.94 160.94 436.94 161.06 437 138.06"/><rect class="cls-14" x="391" y="69" width="46" height="46"/><path class="cls-14" d="M437,69V46h0a23,23,0,0,0-23-23H391V69Z"/><rect class="cls-42" x="345" y="115" width="46" height="46"/><line class="cls-22" x1="391" y1="69" x2="391" y2="115"/><line class="cls-22" x1="345" y1="115" x2="391" y2="115"/><rect class="cls-21" x="345" y="23" width="46" height="46"/><path class="cls-43" d="M253,230a23,23,0,0,0,23,23h0a23,23,0,0,0,23-23V207H253Z"/><line class="cls-22" x1="299" y1="207" x2="299" y2="230"/><path class="cls-30" d="M437,230V207H391v23a23,23,0,0,0,23,23h0A23,23,0,0,0,437,230Z"/><polygon class="cls-43" points="253 115 253 138 253 138 253 161 299 161 299 115 253 115"/><rect class="cls-44" x="299" y="115" width="46" height="46"/><rect class="cls-43" x="253" y="69" width="46" height="46"/><line class="cls-22" x1="299" y1="115" x2="345" y2="115"/><line class="cls-22" x1="299" y1="115" x2="299" y2="69"/><path class="cls-43" d="M299,23H276a23,23,0,0,0-23,23h0V69h46Z"/><rect class="cls-45" x="299" y="23" width="46" height="46"/><rect class="cls-46" x="253" y="161" width="46" height="46"/><line class="cls-22" x1="299" y1="161" x2="345" y2="161"/><line class="cls-22" x1="299" y1="207" x2="299" y2="161"/><line class="cls-22" x1="345" y1="161" x2="391" y2="161"/><rect class="cls-14" x="391" y="161" width="46" height="46"/><path class="cls-25" d="M1333.94,23h-23V69h23a23,23,0,0,0,23-23h0A23,23,0,0,0,1333.94,23Z"/><rect class="cls-47" x="1264.94" y="23" width="46" height="46"/><rect class="cls-48" x="1218.94" y="23" width="46" height="46"/><path class="cls-19" d="M1195.94,23a23,23,0,0,0-23,23h0V69h46V23Z"/><polyline class="cls-22" points="1172.94 46 1172.94 46 1172.94 69"/><line class="cls-49" x1="1333.94" y1="69" x2="1310.94" y2="69"/><line class="cls-50" x1="1310.94" y1="69" x2="1264.94" y2="69"/><line class="cls-51" x1="1218.94" y1="69" x2="1264.94" y2="69"/><rect class="cls-19" x="1172.94" y="69" width="46" height="46"/><line class="cls-22" x1="1172.94" y1="115" x2="1172.94" y2="69"/><path class="cls-52" d="M1356.94,161V138h0a23,23,0,0,0-23-23h-23v46Z"/><rect class="cls-47" x="1264.94" y="115" width="46" height="46"/><rect class="cls-46" x="1218.94" y="115" width="46" height="46"/><path class="cls-19" d="M1172.94,138h0a23,23,0,0,0,23,23h23V115h-46Z"/><polyline class="cls-22" points="1172.94 115 1172.94 138 1172.94 138"/><path class="cls-52" d="M1310.94,253h23a23,23,0,0,0,23-23h0V207h-46Z"/><rect class="cls-24" x="1264.94" y="207" width="46" height="46"/><rect class="cls-48" x="1218.94" y="207" width="46" height="46"/><path class="cls-14" d="M1195.94,207a23,23,0,0,0-23,23h0a23,23,0,0,0,23,23h23V207Z"/><line class="cls-37" x1="1172.94" y1="230" x2="1172.94" y2="230"/><rect class="cls-52" x="1310.94" y="161" width="46" height="46"/><line class="cls-50" x1="1310.94" y1="161" x2="1264.94" y2="161"/><line class="cls-50" x1="1310.94" y1="207" x2="1264.94" y2="207"/><line class="cls-22" x1="1310.94" y1="207" x2="1310.94" y2="161"/><line class="cls-51" x1="1264.94" y1="161" x2="1218.94" y2="161"/><line class="cls-51" x1="1264.94" y1="207" x2="1218.94" y2="207"/><line class="cls-53" x1="1195.94" y1="161" x2="1218.94" y2="161"/><line class="cls-53" x1="1195.94" y1="207" x2="1218.94" y2="207"/></g></g></svg>